<svg width="40" height="29" viewBox="0 0 40 29" fill="none" xmlns="http://www.w3.org/2000/svg">
<g clip-path="url(#clip0_2605_5050)">
<path d="M31.3406 1.42403L39.1398 25.7079C39.5651 27.032 38.5775 28.3864 37.1868 28.3864H31.4518C30.558 28.3864 29.7672 27.8077 29.4967 26.9559L21.7861 2.67206C21.3661 1.34934 22.3534 0 23.7412 0H29.3876C30.2789 0 31.0681 0.575482 31.3406 1.42403Z" fill="#E9B500"/>
<path d="M23.8704 19.3846L18.3709 1.76882C18.0424 0.716559 17.068 0 15.9657 0C14.6239 0 13.5175 1.05147 13.4492 2.39149L12.7783 15.5586C12.7544 16.0262 12.8108 16.4945 12.945 16.9431L15.9305 26.923C16.1903 27.7915 16.9892 28.3864 17.8957 28.3864H20.6709C21.5637 28.3864 22.354 27.8089 22.6252 26.9583L23.8592 23.0879C24.2431 21.8839 24.247 20.5909 23.8704 19.3846Z" fill="#47BE7D"/>
<path d="M10.4188 0H16.0673C17.4505 0 18.4372 1.34097 18.0257 2.66151L10.3945 27.1526C10.1274 28.0097 9.3339 28.5936 8.43605 28.5936H2.78757C1.4044 28.5936 0.417683 27.2527 0.829158 25.9321L8.46041 1.44105C8.72754 0.583877 9.52102 0 10.4188 0Z" fill="#D9214E"/>
</g>
<defs>
<clipPath id="clip0_2605_5050">
<rect width="40" height="28.7179" fill="white"/>
</clipPath>
</defs>
</svg>
