<svg width="295" height="49" viewBox="0 0 295 49" fill="none" xmlns="http://www.w3.org/2000/svg">
<path d="M66.8059 40C66.4593 40 66.2859 39.8267 66.2859 39.48V11.16C66.2859 10.8133 66.4593 10.64 66.8059 10.64H75.6859C79.4993 10.64 82.3926 11.5333 84.3659 13.32C86.3393 15.08 87.3259 17.6 87.3259 20.88C87.3259 24.16 86.3393 26.6933 84.3659 28.48C82.3926 30.24 79.4993 31.12 75.6859 31.12H71.6859V39.48C71.6859 39.8267 71.5126 40 71.1659 40H66.8059ZM75.4859 26.12C79.6459 26.12 81.7259 24.3333 81.7259 20.76C81.7259 19.0533 81.1926 17.7733 80.1259 16.92C79.0593 16.0667 77.5126 15.64 75.4859 15.64H71.6859V26.12H75.4859ZM92.8216 40C92.4749 40 92.3016 39.8267 92.3016 39.48V11.16C92.3016 10.8133 92.4749 10.64 92.8216 10.64H101.702C105.702 10.64 108.635 11.5067 110.502 13.24C112.395 14.9467 113.342 17.4933 113.342 20.88C113.342 22.72 112.982 24.3733 112.262 25.84C111.568 27.28 110.502 28.4533 109.062 29.36L114.542 39.36C114.595 39.52 114.622 39.6133 114.622 39.64C114.622 39.7467 114.582 39.84 114.502 39.92C114.422 39.9733 114.315 40 114.182 40H109.262C108.995 40 108.795 39.88 108.662 39.64L103.942 31C103.222 31.08 102.475 31.12 101.702 31.12H97.7016V39.48C97.7016 39.8267 97.5282 40 97.1816 40H92.8216ZM101.502 26.12C103.635 26.12 105.208 25.7067 106.222 24.88C107.235 24.0267 107.742 22.6933 107.742 20.88C107.742 19.0667 107.235 17.7467 106.222 16.92C105.208 16.0667 103.635 15.64 101.502 15.64H97.7016V26.12H101.502ZM132.86 40.56C130.034 40.56 127.487 39.9333 125.22 38.68C122.98 37.4 121.22 35.6133 119.94 33.32C118.687 31 118.06 28.3333 118.06 25.32C118.06 22.3067 118.687 19.6533 119.94 17.36C121.22 15.04 122.98 13.2533 125.22 12C127.487 10.72 130.034 10.08 132.86 10.08C135.687 10.08 138.22 10.72 140.46 12C142.727 13.2533 144.487 15.04 145.74 17.36C147.02 19.6533 147.66 22.3067 147.66 25.32C147.66 28.3333 147.02 31 145.74 33.32C144.487 35.6133 142.727 37.4 140.46 38.68C138.22 39.9333 135.687 40.56 132.86 40.56ZM132.86 35.28C134.7 35.28 136.314 34.8533 137.7 34C139.114 33.1467 140.194 31.9733 140.94 30.48C141.687 28.96 142.06 27.24 142.06 25.32C142.06 23.4 141.687 21.6933 140.94 20.2C140.194 18.68 139.114 17.4933 137.7 16.64C136.314 15.7867 134.7 15.36 132.86 15.36C131.02 15.36 129.394 15.7867 127.98 16.64C126.594 17.4933 125.527 18.68 124.78 20.2C124.034 21.6933 123.66 23.4 123.66 25.32C123.66 27.24 124.034 28.96 124.78 30.48C125.527 31.9733 126.594 33.1467 127.98 34C129.394 34.8533 131.02 35.28 132.86 35.28ZM153.603 40C153.256 40 153.083 39.8267 153.083 39.48V11.16C153.083 10.8133 153.256 10.64 153.603 10.64H157.963C158.309 10.64 158.483 10.8133 158.483 11.16V34.84H172.643C172.989 34.84 173.163 35.0133 173.163 35.36V39.48C173.163 39.8267 172.989 40 172.643 40H153.603ZM175.655 40C175.468 40 175.335 39.9467 175.255 39.84C175.175 39.7333 175.175 39.5867 175.255 39.4L186.975 11.04C187.082 10.7733 187.282 10.64 187.575 10.64H191.295C191.588 10.64 191.788 10.7733 191.895 11.04L203.615 39.4C203.642 39.4533 203.655 39.5333 203.655 39.64C203.655 39.88 203.508 40 203.215 40H198.175C197.882 40 197.682 39.8667 197.575 39.6L195.495 34.12H183.295L181.215 39.6C181.108 39.8667 180.908 40 180.615 40H175.655ZM189.375 18L185.175 29.12H193.575L189.375 18ZM208.212 40C207.866 40 207.692 39.8267 207.692 39.48V11.16C207.692 10.8133 207.866 10.64 208.212 10.64H218.292C221.679 10.64 224.226 11.3333 225.932 12.72C227.639 14.08 228.492 15.9067 228.492 18.2C228.492 19.6667 228.146 20.9733 227.452 22.12C226.759 23.24 225.759 24.0667 224.452 24.6C226.266 25.08 227.639 25.9467 228.572 27.2C229.506 28.4267 229.972 29.8933 229.972 31.6C229.972 34.2667 229.052 36.3333 227.212 37.8C225.372 39.2667 222.532 40 218.692 40H208.212ZM218.092 22.48C219.639 22.48 220.839 22.2 221.692 21.64C222.546 21.0533 222.972 20.2 222.972 19.08C222.972 17.9867 222.546 17.1467 221.692 16.56C220.839 15.9733 219.639 15.68 218.092 15.68H213.092V22.48H218.092ZM218.852 34.96C220.639 34.96 221.999 34.64 222.932 34C223.892 33.3333 224.372 32.3733 224.372 31.12C224.372 29.8933 223.892 28.96 222.932 28.32C221.999 27.68 220.639 27.36 218.852 27.36H213.092V34.96H218.852Z" fill="#5237F9"/>
<path d="M84.3659 13.32L83.6947 14.0613L83.7003 14.0663L84.3659 13.32ZM84.3659 28.48L85.0316 29.2263L85.0371 29.2213L84.3659 28.48ZM71.6859 31.12V30.12H70.6859V31.12H71.6859ZM80.1259 16.92L80.7506 16.1391L80.1259 16.92ZM71.6859 15.64V14.64H70.6859V15.64H71.6859ZM71.6859 26.12H70.6859V27.12H71.6859V26.12ZM66.8059 39C66.7868 39 66.956 38.9959 67.123 39.1629C67.2901 39.3299 67.2859 39.4992 67.2859 39.48H65.2859C65.2859 39.8075 65.3685 40.2368 65.7088 40.5771C66.0492 40.9175 66.4785 41 66.8059 41V39ZM67.2859 39.48V11.16H65.2859V39.48H67.2859ZM67.2859 11.16C67.2859 11.1408 67.2901 11.3101 67.123 11.4771C66.956 11.6441 66.7868 11.64 66.8059 11.64V9.64C66.4785 9.64 66.0492 9.72255 65.7088 10.0629C65.3685 10.4032 65.2859 10.8325 65.2859 11.16H67.2859ZM66.8059 11.64H75.6859V9.64H66.8059V11.64ZM75.6859 11.64C79.3576 11.64 81.9713 12.5009 83.6948 14.0613L85.0371 12.5787C82.8139 10.5658 79.641 9.64 75.6859 9.64V11.64ZM83.7003 14.0663C85.4114 15.5924 86.3259 17.8111 86.3259 20.88H88.3259C88.3259 17.3889 87.2672 14.5676 85.0316 12.5737L83.7003 14.0663ZM86.3259 20.88C86.3259 23.9483 85.4115 26.1844 83.6948 27.7387L85.0371 29.2213C87.2671 27.2023 88.3259 24.3717 88.3259 20.88H86.3259ZM83.7003 27.7337C81.9769 29.2708 79.3609 30.12 75.6859 30.12V32.12C79.6376 32.12 82.8083 31.2092 85.0316 29.2263L83.7003 27.7337ZM75.6859 30.12H71.6859V32.12H75.6859V30.12ZM70.6859 31.12V39.48H72.6859V31.12H70.6859ZM70.6859 39.48C70.6859 39.4992 70.6818 39.3299 70.8488 39.1629C71.0158 38.9959 71.1851 39 71.1659 39V41C71.4934 41 71.9227 40.9175 72.263 40.5771C72.6034 40.2368 72.6859 39.8075 72.6859 39.48H70.6859ZM71.1659 39H66.8059V41H71.1659V39ZM75.4859 27.12C77.686 27.12 79.5227 26.6508 80.8175 25.5386C82.1414 24.4014 82.7259 22.7439 82.7259 20.76H80.7259C80.7259 22.3495 80.2704 23.372 79.5143 24.0214C78.7292 24.6959 77.4459 25.12 75.4859 25.12V27.12ZM82.7259 20.76C82.7259 18.8326 82.1126 17.2287 80.7506 16.1391L79.5012 17.7009C80.2726 18.318 80.7259 19.274 80.7259 20.76H82.7259ZM80.7506 16.1391C79.4388 15.0896 77.634 14.64 75.4859 14.64V16.64C77.3912 16.64 78.6798 17.0437 79.5012 17.7009L80.7506 16.1391ZM75.4859 14.64H71.6859V16.64H75.4859V14.64ZM70.6859 15.64V26.12H72.6859V15.64H70.6859ZM71.6859 27.12H75.4859V25.12H71.6859V27.12ZM110.502 13.24L109.821 13.9728L109.827 13.9778L109.832 13.9828L110.502 13.24ZM112.262 25.84L111.364 25.3993L111.361 25.4062L112.262 25.84ZM109.062 29.36L108.529 28.5138L107.732 29.0152L108.185 29.8406L109.062 29.36ZM114.542 39.36L115.49 39.0438L115.462 38.9584L115.419 38.8794L114.542 39.36ZM114.502 39.92L115.056 40.7521L115.139 40.6971L115.209 40.6271L114.502 39.92ZM108.662 39.64L107.784 40.1194L107.787 40.1256L108.662 39.64ZM103.942 31L104.819 30.5206L104.498 29.9321L103.831 30.0061L103.942 31ZM97.7016 31.12V30.12H96.7016V31.12H97.7016ZM106.222 24.88L106.854 25.6549L106.86 25.6499L106.866 25.6449L106.222 24.88ZM106.222 16.92L105.577 17.6849L105.583 17.6899L105.589 17.6949L106.222 16.92ZM97.7016 15.64V14.64H96.7016V15.64H97.7016ZM97.7016 26.12H96.7016V27.12H97.7016V26.12ZM92.8216 39C92.8024 39 92.9717 38.9959 93.1387 39.1629C93.3057 39.3299 93.3016 39.4992 93.3016 39.48H91.3016C91.3016 39.8075 91.3841 40.2368 91.7245 40.5771C92.0648 40.9175 92.4941 41 92.8216 41V39ZM93.3016 39.48V11.16H91.3016V39.48H93.3016ZM93.3016 11.16C93.3016 11.1408 93.3057 11.3101 93.1387 11.4771C92.9717 11.6441 92.8024 11.64 92.8216 11.64V9.64C92.4941 9.64 92.0648 9.72255 91.7245 10.0629C91.3841 10.4032 91.3016 10.8325 91.3016 11.16H93.3016ZM92.8216 11.64H101.702V9.64H92.8216V11.64ZM101.702 11.64C105.587 11.64 108.22 12.4864 109.821 13.9728L111.182 12.5072C109.049 10.5269 105.816 9.64 101.702 9.64V11.64ZM109.832 13.9828C111.452 15.4429 112.342 17.6787 112.342 20.88H114.342C114.342 17.308 113.338 14.4504 111.171 12.4972L109.832 13.9828ZM112.342 20.88C112.342 22.5866 112.009 24.0862 111.364 25.3993L113.159 26.2807C113.955 24.6604 114.342 22.8534 114.342 20.88H112.342ZM111.361 25.4062C110.754 26.6657 109.82 27.7005 108.529 28.5138L109.594 30.2062C111.183 29.2062 112.382 27.8943 113.163 26.2738L111.361 25.4062ZM108.185 29.8406L113.665 39.8406L115.419 38.8794L109.939 28.8794L108.185 29.8406ZM113.593 39.6762C113.605 39.7125 113.615 39.7431 113.623 39.7686C113.631 39.7945 113.637 39.8128 113.64 39.8247C113.642 39.8306 113.643 39.8336 113.643 39.8343C113.643 39.8353 113.642 39.8316 113.64 39.8244C113.64 39.8207 113.638 39.8151 113.637 39.808C113.636 39.801 113.634 39.7911 113.632 39.7789C113.63 39.767 113.628 39.75 113.626 39.729C113.624 39.709 113.622 39.6781 113.622 39.64H115.622C115.622 39.5138 115.597 39.4089 115.593 39.3906C115.583 39.3484 115.572 39.3082 115.563 39.2753C115.544 39.2082 115.519 39.1291 115.49 39.0438L113.593 39.6762ZM113.622 39.64C113.622 39.5649 113.636 39.4801 113.672 39.3961C113.708 39.3132 113.755 39.2526 113.794 39.2129L115.209 40.6271C115.464 40.3722 115.622 40.0292 115.622 39.64H113.622ZM113.947 39.0879C114.015 39.0426 114.077 39.0204 114.119 39.0099C114.14 39.0047 114.156 39.0023 114.166 39.0011C114.171 39.0005 114.175 39.0003 114.178 39.0001C114.179 39.0001 114.18 39 114.181 39C114.181 39 114.181 39 114.181 39C114.181 39 114.181 39 114.182 39C114.182 39 114.182 39 114.182 39C114.182 39 114.182 39 114.182 39C114.182 39 114.182 39 114.182 39V41C114.439 41 114.76 40.9497 115.056 40.7521L113.947 39.0879ZM114.182 39H109.262V41H114.182V39ZM109.262 39C109.283 39 109.349 39.0065 109.426 39.0525C109.501 39.0976 109.532 39.1484 109.536 39.1544L107.787 40.1256C107.924 40.3716 108.122 40.6024 108.397 40.7675C108.674 40.9335 108.973 41 109.262 41V39ZM109.539 39.1606L104.819 30.5206L103.064 31.4794L107.784 40.1194L109.539 39.1606ZM103.831 30.0061C103.15 30.0818 102.44 30.12 101.702 30.12V32.12C102.509 32.12 103.293 32.0782 104.052 31.9939L103.831 30.0061ZM101.702 30.12H97.7016V32.12H101.702V30.12ZM96.7016 31.12V39.48H98.7016V31.12H96.7016ZM96.7016 39.48C96.7016 39.4992 96.6974 39.3299 96.8645 39.1629C97.0315 38.9959 97.2008 39 97.1816 39V41C97.509 41 97.9383 40.9175 98.2787 40.5771C98.619 40.2368 98.7016 39.8075 98.7016 39.48H96.7016ZM97.1816 39H92.8216V41H97.1816V39ZM101.502 27.12C103.73 27.12 105.58 26.6942 106.854 25.6549L105.589 24.1051C104.837 24.7191 103.539 25.12 101.502 25.12V27.12ZM106.866 25.6449C108.18 24.5385 108.742 22.8738 108.742 20.88H106.742C106.742 22.5128 106.29 23.5149 105.577 24.1151L106.866 25.6449ZM108.742 20.88C108.742 18.8886 108.18 17.2275 106.854 16.1451L105.589 17.6949C106.289 18.2659 106.742 19.2448 106.742 20.88H108.742ZM106.866 16.1551C105.591 15.0813 103.736 14.64 101.502 14.64V16.64C103.534 16.64 104.826 17.0521 105.577 17.6849L106.866 16.1551ZM101.502 14.64H97.7016V16.64H101.502V14.64ZM96.7016 15.64V26.12H98.7016V15.64H96.7016ZM97.7016 27.12H101.502V25.12H97.7016V27.12ZM125.22 38.68L124.724 39.5483L124.736 39.5551L125.22 38.68ZM119.94 33.32L119.06 33.7953L119.067 33.8074L119.94 33.32ZM119.94 17.36L119.065 16.8769L119.063 16.8804L119.94 17.36ZM125.22 12L125.709 12.8727L125.712 12.8708L125.22 12ZM140.46 12L139.964 12.8683L139.976 12.8751L140.46 12ZM145.74 17.36L144.86 17.8353L144.867 17.8474L145.74 17.36ZM145.74 33.32L144.865 32.8369L144.863 32.8404L145.74 33.32ZM140.46 38.68L140.949 39.5527L140.952 39.5508L140.46 38.68ZM137.7 34L137.183 33.1439L137.176 33.1483L137.7 34ZM140.94 30.48L141.835 30.9272L141.838 30.9209L140.94 30.48ZM140.94 20.2L140.043 20.6409L140.046 20.6472L140.94 20.2ZM137.7 16.64L137.176 17.4917L137.183 17.4961L137.7 16.64ZM127.98 16.64L127.463 15.7839L127.456 15.7883L127.98 16.64ZM124.78 20.2L125.675 20.6472L125.678 20.6409L124.78 20.2ZM124.78 30.48L123.883 30.9209L123.886 30.9272L124.78 30.48ZM127.98 34L127.456 34.8517L127.463 34.8561L127.98 34ZM132.86 39.56C130.187 39.56 127.809 38.969 125.704 37.8049L124.736 39.5551C127.164 40.8977 129.88 41.56 132.86 41.56V39.56ZM125.716 37.8118C123.637 36.6237 122.007 34.9701 120.814 32.8326L119.067 33.8074C120.434 36.2566 122.323 38.1763 124.724 39.5482L125.716 37.8118ZM120.82 32.8447C119.656 30.6904 119.06 28.1913 119.06 25.32H117.06C117.06 28.4753 117.718 31.3096 119.06 33.7953L120.82 32.8447ZM119.06 25.32C119.06 22.4484 119.656 19.9647 120.818 17.8396L119.063 16.8804C117.718 19.342 117.06 22.1649 117.06 25.32H119.06ZM120.816 17.8431C122.009 15.681 123.637 14.0318 125.709 12.8727L124.732 11.1273C122.324 12.4749 120.432 14.399 119.065 16.8769L120.816 17.8431ZM125.712 12.8708C127.816 11.6827 130.191 11.08 132.86 11.08V9.08C129.877 9.08 127.158 9.75733 124.729 11.1292L125.712 12.8708ZM132.86 11.08C135.53 11.08 137.889 11.6827 139.964 12.8682L140.956 11.1318C138.551 9.75731 135.844 9.08 132.86 9.08V11.08ZM139.976 12.8751C142.072 14.0341 143.696 15.6805 144.86 17.8353L146.62 16.8847C145.278 14.3995 143.382 12.4726 140.944 11.1249L139.976 12.8751ZM144.867 17.8474C146.052 19.971 146.66 22.4518 146.66 25.32H148.66C148.66 22.1615 147.988 19.3357 146.614 16.8726L144.867 17.8474ZM146.66 25.32C146.66 28.1879 146.052 30.6841 144.865 32.8369L146.616 33.8031C147.988 31.3159 148.66 28.4788 148.66 25.32H146.66ZM144.863 32.8404C143.699 34.9706 142.072 36.6215 139.969 37.8092L140.952 39.5508C143.382 38.1785 145.275 36.2561 146.618 33.7996L144.863 32.8404ZM139.972 37.8073C137.896 38.9689 135.534 39.56 132.86 39.56V41.56C135.84 41.56 138.545 40.8977 140.949 39.5527L139.972 37.8073ZM132.86 36.28C134.861 36.28 136.66 35.8141 138.224 34.8517L137.176 33.1483C135.967 33.8925 134.54 34.28 132.86 34.28V36.28ZM138.217 34.8561C139.794 33.9038 141.004 32.5878 141.835 30.9272L140.046 30.0328C139.383 31.3589 138.433 32.3896 137.183 33.1439L138.217 34.8561ZM141.838 30.9209C142.66 29.2464 143.06 27.3723 143.06 25.32H141.06C141.06 27.1077 140.714 28.6736 140.043 30.0391L141.838 30.9209ZM143.06 25.32C143.06 23.2681 142.661 21.4044 141.835 19.7528L140.046 20.6472C140.713 21.9822 141.06 23.5319 141.06 25.32H143.06ZM141.838 19.7591C141.009 18.0718 139.799 16.739 138.217 15.7839L137.183 17.4961C138.428 18.2477 139.378 19.2882 140.043 20.6409L141.838 19.7591ZM138.224 15.7883C136.66 14.8258 134.861 14.36 132.86 14.36V16.36C134.54 16.36 135.967 16.7475 137.176 17.4917L138.224 15.7883ZM132.86 14.36C130.86 14.36 129.05 14.8259 127.463 15.7839L128.497 17.4961C129.737 16.7474 131.181 16.36 132.86 16.36V14.36ZM127.456 15.7883C125.902 16.7447 124.709 18.0768 123.883 19.7591L125.678 20.6409C126.345 19.2832 127.285 18.242 128.504 17.4917L127.456 15.7883ZM123.886 19.7528C123.06 21.4044 122.66 23.2681 122.66 25.32H124.66C124.66 23.5319 125.007 21.9822 125.675 20.6472L123.886 19.7528ZM122.66 25.32C122.66 27.3723 123.06 29.2464 123.883 30.9209L125.678 30.0391C125.007 28.6736 124.66 27.1077 124.66 25.32H122.66ZM123.886 30.9272C124.714 32.5828 125.907 33.8981 127.456 34.8517L128.504 33.1483C127.281 32.3953 126.34 31.3639 125.675 30.0328L123.886 30.9272ZM127.463 34.8561C129.05 35.8141 130.86 36.28 132.86 36.28V34.28C131.181 34.28 129.737 33.8926 128.497 33.1439L127.463 34.8561ZM158.483 34.84H157.483V35.84H158.483V34.84ZM153.603 39C153.584 39 153.753 38.9959 153.92 39.1629C154.087 39.3299 154.083 39.4992 154.083 39.48H152.083C152.083 39.8075 152.165 40.2368 152.506 40.5771C152.846 40.9175 153.275 41 153.603 41V39ZM154.083 39.48V11.16H152.083V39.48H154.083ZM154.083 11.16C154.083 11.1408 154.087 11.3101 153.92 11.4771C153.753 11.6441 153.584 11.64 153.603 11.64V9.64C153.275 9.64 152.846 9.72255 152.506 10.0629C152.165 10.4032 152.083 10.8325 152.083 11.16H154.083ZM153.603 11.64H157.963V9.64H153.603V11.64ZM157.963 11.64C157.982 11.64 157.813 11.6441 157.646 11.4771C157.479 11.3101 157.483 11.1408 157.483 11.16H159.483C159.483 10.8325 159.4 10.4032 159.06 10.0629C158.72 9.72255 158.29 9.64 157.963 9.64V11.64ZM157.483 11.16V34.84H159.483V11.16H157.483ZM158.483 35.84H172.643V33.84H158.483V35.84ZM172.643 35.84C172.662 35.84 172.493 35.8441 172.326 35.6771C172.159 35.5101 172.163 35.3408 172.163 35.36H174.163C174.163 35.0325 174.08 34.6032 173.74 34.2629C173.4 33.9225 172.97 33.84 172.643 33.84V35.84ZM172.163 35.36V39.48H174.163V35.36H172.163ZM172.163 39.48C172.163 39.4992 172.159 39.3299 172.326 39.1629C172.493 38.9959 172.662 39 172.643 39V41C172.97 41 173.4 40.9175 173.74 40.5771C174.08 40.2368 174.163 39.8075 174.163 39.48H172.163ZM172.643 39H153.603V41H172.643V39ZM175.255 39.84L176.055 39.24L175.255 39.84ZM175.255 39.4L176.174 39.794L176.179 39.7819L175.255 39.4ZM186.975 11.04L187.899 11.422L187.903 11.4114L186.975 11.04ZM191.895 11.04L190.966 11.4114L190.971 11.4219L191.895 11.04ZM203.615 39.4L202.691 39.7819L202.705 39.8151L202.721 39.8472L203.615 39.4ZM197.575 39.6L196.64 39.9549L196.643 39.9632L196.647 39.9714L197.575 39.6ZM195.495 34.12L196.43 33.7651L196.185 33.12H195.495V34.12ZM183.295 34.12V33.12H182.605L182.36 33.7651L183.295 34.12ZM181.215 39.6L182.143 39.9714L182.147 39.9632L182.15 39.9549L181.215 39.6ZM189.375 18L190.311 17.6467L189.375 15.1698L188.439 17.6467L189.375 18ZM185.175 29.12L184.24 28.7667L183.728 30.12H185.175V29.12ZM193.575 29.12V30.12H195.022L194.51 28.7667L193.575 29.12ZM175.655 39C175.655 39 175.668 39 175.689 39.0036C175.711 39.0073 175.745 39.015 175.786 39.0315C175.876 39.0675 175.976 39.1353 176.055 39.24L174.455 40.44C174.792 40.8893 175.288 41 175.655 41V39ZM176.055 39.24C176.158 39.3772 176.195 39.5298 176.195 39.65C176.195 39.7535 176.168 39.8075 176.174 39.7939L174.336 39.0061C174.195 39.3356 174.062 39.9157 174.455 40.44L176.055 39.24ZM176.179 39.7819L187.899 11.4219L186.051 10.6581L174.331 39.0181L176.179 39.7819ZM187.903 11.4114C187.897 11.4286 187.859 11.5061 187.76 11.572C187.662 11.637 187.582 11.64 187.575 11.64V9.64C187.275 9.64 186.948 9.70971 186.65 9.90795C186.351 10.1072 186.16 10.3848 186.047 10.6686L187.903 11.4114ZM187.575 11.64H191.295V9.64H187.575V11.64ZM191.295 11.64C191.288 11.64 191.208 11.637 191.11 11.5721C191.011 11.5061 190.973 11.4286 190.967 11.4114L192.823 10.6686C192.71 10.3848 192.519 10.1072 192.22 9.90795C191.922 9.70971 191.595 9.64 191.295 9.64V11.64ZM190.971 11.4219L202.691 39.7819L204.539 39.0181L192.819 10.6581L190.971 11.4219ZM202.721 39.8472C202.677 39.7592 202.663 39.6899 202.659 39.6644C202.654 39.6362 202.655 39.6256 202.655 39.64H204.655C204.655 39.4823 204.641 39.2151 204.509 38.9528L202.721 39.8472ZM202.655 39.64C202.655 39.547 202.693 39.3149 202.912 39.136C203.092 38.9886 203.251 39 203.215 39V41C203.473 41 203.851 40.9514 204.178 40.684C204.544 40.3851 204.655 39.973 204.655 39.64H202.655ZM203.215 39H198.175V41H203.215V39ZM198.175 39C198.182 39 198.262 39.003 198.36 39.068C198.459 39.1339 198.497 39.2114 198.503 39.2286L196.647 39.9714C196.76 40.2552 196.951 40.5328 197.25 40.7321C197.548 40.9303 197.875 41 198.175 41V39ZM198.51 39.2451L196.43 33.7651L194.56 34.4749L196.64 39.9549L198.51 39.2451ZM195.495 33.12H183.295V35.12H195.495V33.12ZM182.36 33.7651L180.28 39.2451L182.15 39.9549L184.23 34.4749L182.36 33.7651ZM180.287 39.2286C180.293 39.2114 180.331 39.1339 180.43 39.068C180.528 39.003 180.608 39 180.615 39V41C180.915 41 181.242 40.9303 181.54 40.7321C181.839 40.5328 182.03 40.2552 182.143 39.9714L180.287 39.2286ZM180.615 39H175.655V41H180.615V39ZM188.439 17.6467L184.24 28.7667L186.111 29.4733L190.311 18.3533L188.439 17.6467ZM185.175 30.12H193.575V28.12H185.175V30.12ZM194.51 28.7667L190.311 17.6467L188.439 18.3533L192.64 29.4733L194.51 28.7667ZM225.932 12.72L225.302 13.4961L225.309 13.5021L225.932 12.72ZM227.452 22.12L228.303 22.6464L228.308 22.6374L227.452 22.12ZM224.452 24.6L224.074 23.6742L221.31 24.8026L224.196 25.5667L224.452 24.6ZM228.572 27.2L227.77 27.7973L227.776 27.8055L228.572 27.2ZM221.692 21.64L222.241 22.476L222.25 22.4701L222.259 22.464L221.692 21.64ZM221.692 16.56L221.126 17.384L221.692 16.56ZM213.092 15.68V14.68H212.092V15.68H213.092ZM213.092 22.48H212.092V23.48H213.092V22.48ZM222.932 34L223.498 34.8247L223.503 34.8214L222.932 34ZM222.932 28.32L222.367 29.1448L222.377 29.152L222.932 28.32ZM213.092 27.36V26.36H212.092V27.36H213.092ZM213.092 34.96H212.092V35.96H213.092V34.96ZM208.212 39C208.193 39 208.362 38.9959 208.529 39.1629C208.696 39.3299 208.692 39.4992 208.692 39.48H206.692C206.692 39.8075 206.775 40.2368 207.115 40.5771C207.455 40.9175 207.885 41 208.212 41V39ZM208.692 39.48V11.16H206.692V39.48H208.692ZM208.692 11.16C208.692 11.1408 208.696 11.3101 208.529 11.4771C208.362 11.6441 208.193 11.64 208.212 11.64V9.64C207.885 9.64 207.455 9.72255 207.115 10.0629C206.775 10.4032 206.692 10.8325 206.692 11.16H208.692ZM208.212 11.64H218.292V9.64H208.212V11.64ZM218.292 11.64C221.567 11.64 223.847 12.3143 225.302 13.4961L226.563 11.9439C224.604 10.3524 221.791 9.64 218.292 9.64V11.64ZM225.309 13.5021C226.764 14.6614 227.492 16.1932 227.492 18.2H229.492C229.492 15.6201 228.514 13.4986 226.555 11.9379L225.309 13.5021ZM227.492 18.2C227.492 19.5021 227.187 20.6266 226.596 21.6026L228.308 22.6374C229.104 21.3201 229.492 19.8313 229.492 18.2H227.492ZM226.602 21.5936C226.028 22.5208 225.2 23.2147 224.074 23.6742L224.83 25.5258C226.318 24.9187 227.49 23.9592 228.302 22.6464L226.602 21.5936ZM224.196 25.5667C225.836 26.0009 226.997 26.7596 227.77 27.7973L229.374 26.6027C228.28 25.1337 226.695 24.1591 224.708 23.6333L224.196 25.5667ZM227.776 27.8055C228.563 28.8394 228.972 30.0873 228.972 31.6H230.972C230.972 29.6994 230.448 28.0139 229.368 26.5945L227.776 27.8055ZM228.972 31.6C228.972 34.0082 228.157 35.768 226.589 37.018L227.835 38.582C229.947 36.8987 230.972 34.5252 230.972 31.6H228.972ZM226.589 37.018C225.007 38.2787 222.438 39 218.692 39V41C222.626 41 225.737 40.2547 227.835 38.582L226.589 37.018ZM218.692 39H208.212V41H218.692V39ZM218.092 23.48C219.74 23.48 221.161 23.1849 222.241 22.476L221.144 20.804C220.517 21.2151 219.538 21.48 218.092 21.48V23.48ZM222.259 22.464C223.408 21.6736 223.972 20.4976 223.972 19.08H221.972C221.972 19.9024 221.683 20.4331 221.126 20.816L222.259 22.464ZM223.972 19.08C223.972 17.6792 223.401 16.5212 222.259 15.736L221.126 17.384C221.69 17.7721 221.972 18.2942 221.972 19.08H223.972ZM222.259 15.736C221.175 14.9909 219.747 14.68 218.092 14.68V16.68C219.531 16.68 220.503 16.9557 221.126 17.384L222.259 15.736ZM218.092 14.68H213.092V16.68H218.092V14.68ZM212.092 15.68V22.48H214.092V15.68H212.092ZM213.092 23.48H218.092V21.48H213.092V23.48ZM218.852 35.96C220.733 35.96 222.327 35.6275 223.498 34.8247L222.367 33.1753C221.671 33.6525 220.545 33.96 218.852 33.96V35.96ZM223.503 34.8214C224.754 33.9524 225.372 32.673 225.372 31.12H223.372C223.372 32.0736 223.031 32.7142 222.362 33.1786L223.503 34.8214ZM225.372 31.12C225.372 29.5841 224.745 28.327 223.487 27.4879L222.377 29.152C223.039 29.5931 223.372 30.2025 223.372 31.12H225.372ZM223.498 27.4953C222.327 26.6925 220.733 26.36 218.852 26.36V28.36C220.545 28.36 221.671 28.6675 222.367 29.1447L223.498 27.4953ZM218.852 26.36H213.092V28.36H218.852V26.36ZM212.092 27.36V34.96H214.092V27.36H212.092ZM213.092 35.96H218.852V33.96H213.092V35.96Z" fill="#5237F9"/>
</svg>