<svg width="185" height="49" viewBox="0 0 185 49" fill="none" xmlns="http://www.w3.org/2000/svg">
<path d="M11.8059 40C11.4593 40 11.2859 39.8267 11.2859 39.48V11.16C11.2859 10.8133 11.4593 10.64 11.8059 10.64H20.6859C24.4993 10.64 27.3926 11.5333 29.3659 13.32C31.3393 15.08 32.3259 17.6 32.3259 20.88C32.3259 24.16 31.3393 26.6933 29.3659 28.48C27.3926 30.24 24.4993 31.12 20.6859 31.12H16.6859V39.48C16.6859 39.8267 16.5126 40 16.1659 40H11.8059ZM20.4859 26.12C24.6459 26.12 26.7259 24.3333 26.7259 20.76C26.7259 19.0533 26.1926 17.7733 25.1259 16.92C24.0593 16.0667 22.5126 15.64 20.4859 15.64H16.6859V26.12H20.4859ZM37.8216 40C37.4749 40 37.3016 39.8267 37.3016 39.48V11.16C37.3016 10.8133 37.4749 10.64 37.8216 10.64H46.7016C50.7016 10.64 53.6349 11.5067 55.5016 13.24C57.3949 14.9467 58.3416 17.4933 58.3416 20.88C58.3416 22.72 57.9816 24.3733 57.2616 25.84C56.5682 27.28 55.5016 28.4533 54.0616 29.36L59.5416 39.36C59.5949 39.52 59.6216 39.6133 59.6216 39.64C59.6216 39.7467 59.5816 39.84 59.5016 39.92C59.4216 39.9733 59.3149 40 59.1816 40H54.2616C53.9949 40 53.7949 39.88 53.6616 39.64L48.9416 31C48.2216 31.08 47.4749 31.12 46.7016 31.12H42.7016V39.48C42.7016 39.8267 42.5282 40 42.1816 40H37.8216ZM46.5016 26.12C48.6349 26.12 50.2082 25.7067 51.2216 24.88C52.2349 24.0267 52.7416 22.6933 52.7416 20.88C52.7416 19.0667 52.2349 17.7467 51.2216 16.92C50.2082 16.0667 48.6349 15.64 46.5016 15.64H42.7016V26.12H46.5016ZM77.8603 40.56C75.0336 40.56 72.487 39.9333 70.2203 38.68C67.9803 37.4 66.2203 35.6133 64.9403 33.32C63.687 31 63.0603 28.3333 63.0603 25.32C63.0603 22.3067 63.687 19.6533 64.9403 17.36C66.2203 15.04 67.9803 13.2533 70.2203 12C72.487 10.72 75.0336 10.08 77.8603 10.08C80.687 10.08 83.2203 10.72 85.4603 12C87.727 13.2533 89.487 15.04 90.7403 17.36C92.0203 19.6533 92.6603 22.3067 92.6603 25.32C92.6603 28.3333 92.0203 31 90.7403 33.32C89.487 35.6133 87.727 37.4 85.4603 38.68C83.2203 39.9333 80.687 40.56 77.8603 40.56ZM77.8603 35.28C79.7003 35.28 81.3136 34.8533 82.7003 34C84.1136 33.1467 85.1936 31.9733 85.9403 30.48C86.687 28.96 87.0603 27.24 87.0603 25.32C87.0603 23.4 86.687 21.6933 85.9403 20.2C85.1936 18.68 84.1136 17.4933 82.7003 16.64C81.3136 15.7867 79.7003 15.36 77.8603 15.36C76.0203 15.36 74.3936 15.7867 72.9803 16.64C71.5936 17.4933 70.527 18.68 69.7803 20.2C69.0336 21.6933 68.6603 23.4 68.6603 25.32C68.6603 27.24 69.0336 28.96 69.7803 30.48C70.527 31.9733 71.5936 33.1467 72.9803 34C74.3936 34.8533 76.0203 35.28 77.8603 35.28ZM98.6028 40C98.2561 40 98.0828 39.8267 98.0828 39.48V11.16C98.0828 10.8133 98.2561 10.64 98.6028 10.64H102.963C103.309 10.64 103.483 10.8133 103.483 11.16V34.84H117.643C117.989 34.84 118.163 35.0133 118.163 35.36V39.48C118.163 39.8267 117.989 40 117.643 40H98.6028ZM120.655 40C120.468 40 120.335 39.9467 120.255 39.84C120.175 39.7333 120.175 39.5867 120.255 39.4L131.975 11.04C132.082 10.7733 132.282 10.64 132.575 10.64H136.295C136.588 10.64 136.788 10.7733 136.895 11.04L148.615 39.4C148.642 39.4533 148.655 39.5333 148.655 39.64C148.655 39.88 148.508 40 148.215 40H143.175C142.882 40 142.682 39.8667 142.575 39.6L140.495 34.12H128.295L126.215 39.6C126.108 39.8667 125.908 40 125.615 40H120.655ZM134.375 18L130.175 29.12H138.575L134.375 18ZM153.212 40C152.866 40 152.692 39.8267 152.692 39.48V11.16C152.692 10.8133 152.866 10.64 153.212 10.64H163.292C166.679 10.64 169.226 11.3333 170.932 12.72C172.639 14.08 173.492 15.9067 173.492 18.2C173.492 19.6667 173.146 20.9733 172.452 22.12C171.759 23.24 170.759 24.0667 169.452 24.6C171.266 25.08 172.639 25.9467 173.572 27.2C174.506 28.4267 174.972 29.8933 174.972 31.6C174.972 34.2667 174.052 36.3333 172.212 37.8C170.372 39.2667 167.532 40 163.692 40H153.212ZM163.092 22.48C164.639 22.48 165.839 22.2 166.692 21.64C167.546 21.0533 167.972 20.2 167.972 19.08C167.972 17.9867 167.546 17.1467 166.692 16.56C165.839 15.9733 164.639 15.68 163.092 15.68H158.092V22.48H163.092ZM163.852 34.96C165.639 34.96 166.999 34.64 167.932 34C168.892 33.3333 169.372 32.3733 169.372 31.12C169.372 29.8933 168.892 28.96 167.932 28.32C166.999 27.68 165.639 27.36 163.852 27.36H158.092V34.96H163.852Z" fill="white"/>
<path d="M29.3659 13.32L28.6947 14.0613L28.7003 14.0663L29.3659 13.32ZM29.3659 28.48L30.0316 29.2263L30.0371 29.2213L29.3659 28.48ZM16.6859 31.12V30.12H15.6859V31.12H16.6859ZM25.1259 16.92L25.7506 16.1391L25.7506 16.1391L25.1259 16.92ZM16.6859 15.64V14.64H15.6859V15.64H16.6859ZM16.6859 26.12H15.6859V27.12H16.6859V26.12ZM11.8059 39C11.7867 39 11.956 38.9959 12.123 39.1629C12.2901 39.3299 12.2859 39.4992 12.2859 39.48H10.2859C10.2859 39.8075 10.3685 40.2368 10.7088 40.5771C11.0492 40.9175 11.4785 41 11.8059 41V39ZM12.2859 39.48V11.16H10.2859V39.48H12.2859ZM12.2859 11.16C12.2859 11.1408 12.2901 11.3101 12.123 11.4771C11.956 11.6441 11.7867 11.64 11.8059 11.64V9.64C11.4785 9.64 11.0492 9.72255 10.7088 10.0629C10.3685 10.4032 10.2859 10.8325 10.2859 11.16H12.2859ZM11.8059 11.64H20.6859V9.64H11.8059V11.64ZM20.6859 11.64C24.3576 11.64 26.9713 12.5009 28.6948 14.0613L30.0371 12.5787C27.8139 10.5658 24.641 9.64 20.6859 9.64V11.64ZM28.7003 14.0663C30.4114 15.5924 31.3259 17.8111 31.3259 20.88H33.3259C33.3259 17.3889 32.2672 14.5676 30.0316 12.5737L28.7003 14.0663ZM31.3259 20.88C31.3259 23.9483 30.4115 26.1844 28.6948 27.7387L30.0371 29.2213C32.2671 27.2023 33.3259 24.3717 33.3259 20.88H31.3259ZM28.7003 27.7337C26.9769 29.2708 24.3609 30.12 20.6859 30.12V32.12C24.6376 32.12 27.8083 31.2092 30.0316 29.2263L28.7003 27.7337ZM20.6859 30.12H16.6859V32.12H20.6859V30.12ZM15.6859 31.12V39.48H17.6859V31.12H15.6859ZM15.6859 39.48C15.6859 39.4992 15.6818 39.3299 15.8488 39.1629C16.0158 38.9959 16.1851 39 16.1659 39V41C16.4934 41 16.9227 40.9175 17.263 40.5771C17.6034 40.2368 17.6859 39.8075 17.6859 39.48H15.6859ZM16.1659 39H11.8059V41H16.1659V39ZM20.4859 27.12C22.686 27.12 24.5227 26.6508 25.8175 25.5386C27.1414 24.4014 27.7259 22.7439 27.7259 20.76H25.7259C25.7259 22.3495 25.2704 23.372 24.5143 24.0214C23.7292 24.6959 22.4459 25.12 20.4859 25.12V27.12ZM27.7259 20.76C27.7259 18.8326 27.1126 17.2287 25.7506 16.1391L24.5012 17.7009C25.2726 18.318 25.7259 19.274 25.7259 20.76H27.7259ZM25.7506 16.1391C24.4388 15.0896 22.634 14.64 20.4859 14.64V16.64C22.3912 16.64 23.6798 17.0437 24.5012 17.7009L25.7506 16.1391ZM20.4859 14.64H16.6859V16.64H20.4859V14.64ZM15.6859 15.64V26.12H17.6859V15.64H15.6859ZM16.6859 27.12H20.4859V25.12H16.6859V27.12ZM55.5016 13.24L54.8211 13.9728L54.8265 13.9778L54.832 13.9828L55.5016 13.24ZM57.2616 25.84L56.3639 25.3993L56.3606 25.4062L57.2616 25.84ZM54.0616 29.36L53.5287 28.5138L52.7323 29.0152L53.1846 29.8406L54.0616 29.36ZM59.5416 39.36L60.4902 39.0438L60.4618 38.9584L60.4185 38.8794L59.5416 39.36ZM59.5016 39.92L60.0563 40.7521L60.1387 40.6971L60.2087 40.6271L59.5016 39.92ZM53.6616 39.64L52.784 40.1194L52.7874 40.1256L53.6616 39.64ZM48.9416 31L49.8191 30.5206L49.4976 29.9321L48.8311 30.0061L48.9416 31ZM42.7016 31.12V30.12H41.7016V31.12H42.7016ZM51.2216 24.88L51.8537 25.6549L51.8597 25.6499L51.8657 25.6449L51.2216 24.88ZM51.2216 16.92L50.5774 17.6849L50.5834 17.6899L50.5894 17.6949L51.2216 16.92ZM42.7016 15.64V14.64H41.7016V15.64H42.7016ZM42.7016 26.12H41.7016V27.12H42.7016V26.12ZM37.8216 39C37.8024 39 37.9717 38.9959 38.1387 39.1629C38.3057 39.3299 38.3016 39.4992 38.3016 39.48H36.3016C36.3016 39.8075 36.3841 40.2368 36.7245 40.5771C37.0648 40.9175 37.4941 41 37.8216 41V39ZM38.3016 39.48V11.16H36.3016V39.48H38.3016ZM38.3016 11.16C38.3016 11.1408 38.3057 11.3101 38.1387 11.4771C37.9717 11.6441 37.8024 11.64 37.8216 11.64V9.64C37.4941 9.64 37.0648 9.72255 36.7245 10.0629C36.3841 10.4032 36.3016 10.8325 36.3016 11.16H38.3016ZM37.8216 11.64H46.7016V9.64H37.8216V11.64ZM46.7016 11.64C50.5873 11.64 53.2204 12.4864 54.8211 13.9728L56.182 12.5072C54.0494 10.5269 50.8159 9.64 46.7016 9.64V11.64ZM54.832 13.9828C56.4519 15.4429 57.3416 17.6787 57.3416 20.88H59.3416C59.3416 17.308 58.3379 14.4504 56.1711 12.4972L54.832 13.9828ZM57.3416 20.88C57.3416 22.5866 57.0085 24.0862 56.3639 25.3993L58.1592 26.2807C58.9546 24.6604 59.3416 22.8534 59.3416 20.88H57.3416ZM56.3606 25.4062C55.7541 26.6657 54.8205 27.7005 53.5287 28.5138L54.5944 30.2062C56.1827 29.2062 57.3824 27.8943 58.1626 26.2738L56.3606 25.4062ZM53.1846 29.8406L58.6646 39.8406L60.4185 38.8794L54.9385 28.8794L53.1846 29.8406ZM58.5929 39.6762C58.605 39.7125 58.6149 39.7431 58.623 39.7686C58.6311 39.7945 58.6366 39.8128 58.64 39.8247C58.6417 39.8306 58.6425 39.8336 58.6427 39.8343C58.6429 39.8353 58.642 39.8316 58.6404 39.8244C58.6395 39.8207 58.6383 39.8151 58.637 39.808C58.6356 39.801 58.6338 39.7911 58.6319 39.7789C58.6301 39.767 58.6277 39.75 58.6258 39.729C58.6238 39.709 58.6216 39.6781 58.6216 39.64H60.6216C60.6216 39.5138 60.5968 39.4089 60.5928 39.3906C60.5834 39.3484 60.5725 39.3082 60.5631 39.2753C60.5439 39.2082 60.5187 39.1291 60.4902 39.0438L58.5929 39.6762ZM58.6216 39.64C58.6216 39.5649 58.6364 39.4801 58.6724 39.3961C58.7079 39.3132 58.7547 39.2526 58.7945 39.2129L60.2087 40.6271C60.4636 40.3722 60.6216 40.0292 60.6216 39.64H58.6216ZM58.9469 39.0879C59.0149 39.0426 59.0769 39.0204 59.119 39.0099C59.1398 39.0047 59.1559 39.0023 59.1661 39.0011C59.1713 39.0005 59.1752 39.0003 59.1778 39.0001C59.179 39.0001 59.18 39 59.1806 39C59.1809 39 59.1812 39 59.1813 39C59.1814 39 59.1815 39 59.1815 39C59.1815 39 59.1815 39 59.1815 39C59.1816 39 59.1816 39 59.1816 39C59.1816 39 59.1816 39 59.1816 39V41C59.4385 41 59.7598 40.9497 60.0563 40.7521L58.9469 39.0879ZM59.1816 39H54.2616V41H59.1816V39ZM54.2616 39C54.283 39 54.3494 39.0065 54.4261 39.0525C54.5012 39.0976 54.5324 39.1484 54.5357 39.1544L52.7874 40.1256C52.9241 40.3716 53.1219 40.6024 53.3971 40.7675C53.6737 40.9335 53.9735 41 54.2616 41V39ZM54.5391 39.1606L49.8191 30.5206L48.064 31.4794L52.784 40.1194L54.5391 39.1606ZM48.8311 30.0061C48.1502 30.0818 47.4405 30.12 46.7016 30.12V32.12C47.5093 32.12 48.293 32.0782 49.052 31.9939L48.8311 30.0061ZM46.7016 30.12H42.7016V32.12H46.7016V30.12ZM41.7016 31.12V39.48H43.7016V31.12H41.7016ZM41.7016 39.48C41.7016 39.4992 41.6974 39.3299 41.8645 39.1629C42.0315 38.9959 42.2008 39 42.1816 39V41C42.509 41 42.9383 40.9175 43.2787 40.5771C43.619 40.2368 43.7016 39.8075 43.7016 39.48H41.7016ZM42.1816 39H37.8216V41H42.1816V39ZM46.5016 27.12C48.7303 27.12 50.5797 26.6942 51.8537 25.6549L50.5894 24.1051C49.8368 24.7191 48.5395 25.12 46.5016 25.12V27.12ZM51.8657 25.6449C53.1796 24.5385 53.7416 22.8738 53.7416 20.88H51.7416C51.7416 22.5129 51.2902 23.5149 50.5774 24.1151L51.8657 25.6449ZM53.7416 20.88C53.7416 18.8886 53.1804 17.2275 51.8537 16.1451L50.5894 17.6949C51.2894 18.2659 51.7416 19.2448 51.7416 20.88H53.7416ZM51.8657 16.1551C50.5905 15.0813 48.7358 14.64 46.5016 14.64V16.64C48.534 16.64 49.8259 17.0521 50.5774 17.6849L51.8657 16.1551ZM46.5016 14.64H42.7016V16.64H46.5016V14.64ZM41.7016 15.64V26.12H43.7016V15.64H41.7016ZM42.7016 27.12H46.5016V25.12H42.7016V27.12ZM70.2203 38.68L69.7241 39.5483L69.7364 39.5551L70.2203 38.68ZM64.9403 33.32L64.0604 33.7954L64.0671 33.8074L64.9403 33.32ZM64.9403 17.36L64.0647 16.8769L64.0628 16.8804L64.9403 17.36ZM70.2203 12L70.7086 12.8727L70.712 12.8708L70.2203 12ZM85.4603 12L84.9641 12.8683L84.9764 12.8751L85.4603 12ZM90.7403 17.36L89.8604 17.8353L89.8671 17.8474L90.7403 17.36ZM90.7403 33.32L89.8647 32.8369L89.8628 32.8404L90.7403 33.32ZM85.4603 38.68L85.9486 39.5527L85.952 39.5508L85.4603 38.68ZM82.7003 34L82.1834 33.1439L82.1762 33.1483L82.7003 34ZM85.9403 30.48L86.8348 30.9272L86.8379 30.9209L85.9403 30.48ZM85.9403 20.2L85.0427 20.6409L85.0459 20.6472L85.9403 20.2ZM82.7003 16.64L82.1762 17.4917L82.1834 17.4961L82.7003 16.64ZM72.9803 16.64L72.4634 15.7839L72.4562 15.7883L72.9803 16.64ZM69.7803 20.2L70.6748 20.6472L70.6779 20.6409L69.7803 20.2ZM69.7803 30.48L68.8827 30.9209L68.8859 30.9272L69.7803 30.48ZM72.9803 34L72.4562 34.8517L72.4634 34.8561L72.9803 34ZM77.8603 39.56C75.1871 39.56 72.8095 38.969 70.7042 37.8049L69.7364 39.5551C72.1645 40.8977 74.8802 41.56 77.8603 41.56V39.56ZM70.7165 37.8118C68.6374 36.6237 67.0065 34.9701 65.8135 32.8326L64.0671 33.8074C65.4341 36.2566 67.3232 38.1763 69.7242 39.5482L70.7165 37.8118ZM65.8201 32.8447C64.6563 30.6904 64.0603 28.1913 64.0603 25.32H62.0603C62.0603 28.4754 62.7176 31.3096 64.0605 33.7953L65.8201 32.8447ZM64.0603 25.32C64.0603 22.4484 64.6564 19.9647 65.8178 17.8396L64.0628 16.8804C62.7175 19.342 62.0603 22.1649 62.0603 25.32H64.0603ZM65.8159 17.8431C67.0088 15.681 68.637 14.0318 70.7086 12.8727L69.732 11.1273C67.3236 12.4749 65.4319 14.399 64.0647 16.8769L65.8159 17.8431ZM70.712 12.8708C72.8159 11.6827 75.1907 11.08 77.8603 11.08V9.08C74.8766 9.08 72.158 9.75733 69.7286 11.1292L70.712 12.8708ZM77.8603 11.08C80.5301 11.08 82.8895 11.6827 84.9642 12.8682L85.9565 11.1318C83.5512 9.75731 80.8439 9.08 77.8603 9.08V11.08ZM84.9764 12.8751C87.0724 14.0341 88.6964 15.6805 89.8605 17.8353L91.6201 16.8847C90.2776 14.3995 88.3816 12.4726 85.9442 11.1249L84.9764 12.8751ZM89.8671 17.8474C91.0524 19.971 91.6603 22.4518 91.6603 25.32H93.6603C93.6603 22.1615 92.9882 19.3357 91.6135 16.8726L89.8671 17.8474ZM91.6603 25.32C91.6603 28.1879 91.0525 30.6841 89.8647 32.8369L91.6159 33.8031C92.9882 31.3159 93.6603 28.4788 93.6603 25.32H91.6603ZM89.8628 32.8404C88.6986 34.9706 87.072 36.6215 84.9686 37.8092L85.952 39.5508C88.382 38.1785 90.2753 36.2561 91.6178 33.7996L89.8628 32.8404ZM84.972 37.8073C82.896 38.9689 80.5337 39.56 77.8603 39.56V41.56C80.8402 41.56 83.5447 40.8977 85.9486 39.5527L84.972 37.8073ZM77.8603 36.28C79.8607 36.28 81.6604 35.8141 83.2244 34.8517L82.1762 33.1483C80.9669 33.8925 79.5399 34.28 77.8603 34.28V36.28ZM83.2172 34.8561C84.7944 33.9038 86.0045 32.5878 86.8347 30.9272L85.0459 30.0328C84.3828 31.3589 83.4328 32.3896 82.1834 33.1439L83.2172 34.8561ZM86.8379 30.9209C87.6604 29.2464 88.0603 27.3723 88.0603 25.32H86.0603C86.0603 27.1077 85.7135 28.6736 85.0428 30.0391L86.8379 30.9209ZM88.0603 25.32C88.0603 23.2681 87.6606 21.4044 86.8347 19.7528L85.0459 20.6472C85.7134 21.9822 86.0603 23.5319 86.0603 25.32H88.0603ZM86.8379 19.7591C86.009 18.0718 84.799 16.739 83.2172 15.7839L82.1834 17.4961C83.4283 18.2477 84.3783 19.2882 85.0428 20.6409L86.8379 19.7591ZM83.2244 15.7883C81.6604 14.8258 79.8607 14.36 77.8603 14.36V16.36C79.5399 16.36 80.9669 16.7475 82.1762 17.4917L83.2244 15.7883ZM77.8603 14.36C75.8596 14.36 74.0501 14.8259 72.4634 15.7839L73.4972 17.4961C74.7372 16.7474 76.1811 16.36 77.8603 16.36V14.36ZM72.4562 15.7883C70.9021 16.7447 69.7091 18.0768 68.8828 19.7591L70.6779 20.6409C71.3448 19.2832 72.2851 18.242 73.5044 17.4917L72.4562 15.7883ZM68.8859 19.7528C68.0601 21.4044 67.6603 23.2681 67.6603 25.32H69.6603C69.6603 23.5319 70.0072 21.9822 70.6747 20.6472L68.8859 19.7528ZM67.6603 25.32C67.6603 27.3723 68.0602 29.2464 68.8828 30.9209L70.6779 30.0391C70.0071 28.6736 69.6603 27.1077 69.6603 25.32H67.6603ZM68.8859 30.9272C69.7137 32.5828 70.9066 33.8981 72.4562 34.8517L73.5044 33.1483C72.2807 32.3953 71.3403 31.3639 70.6747 30.0328L68.8859 30.9272ZM72.4634 34.8561C74.0501 35.8141 75.8596 36.28 77.8603 36.28V34.28C76.1811 34.28 74.7372 33.8926 73.4972 33.1439L72.4634 34.8561ZM103.483 34.84H102.483V35.84H103.483V34.84ZM98.6028 39C98.5836 39 98.7529 38.9959 98.9199 39.1629C99.0869 39.3299 99.0828 39.4992 99.0828 39.48H97.0828C97.0828 39.8075 97.1654 40.2368 97.5057 40.5771C97.8461 40.9175 98.2753 41 98.6028 41V39ZM99.0828 39.48V11.16H97.0828V39.48H99.0828ZM99.0828 11.16C99.0828 11.1408 99.0869 11.3101 98.9199 11.4771C98.7529 11.6441 98.5836 11.64 98.6028 11.64V9.64C98.2753 9.64 97.8461 9.72255 97.5057 10.0629C97.1654 10.4032 97.0828 10.8325 97.0828 11.16H99.0828ZM98.6028 11.64H102.963V9.64H98.6028V11.64ZM102.963 11.64C102.982 11.64 102.813 11.6441 102.646 11.4771C102.479 11.3101 102.483 11.1408 102.483 11.16H104.483C104.483 10.8325 104.4 10.4032 104.06 10.0629C103.72 9.72255 103.29 9.64 102.963 9.64V11.64ZM102.483 11.16V34.84H104.483V11.16H102.483ZM103.483 35.84H117.643V33.84H103.483V35.84ZM117.643 35.84C117.662 35.84 117.493 35.8441 117.326 35.6771C117.159 35.5101 117.163 35.3408 117.163 35.36H119.163C119.163 35.0325 119.08 34.6032 118.74 34.2629C118.4 33.9225 117.97 33.84 117.643 33.84V35.84ZM117.163 35.36V39.48H119.163V35.36H117.163ZM117.163 39.48C117.163 39.4992 117.159 39.3299 117.326 39.1629C117.493 38.9959 117.662 39 117.643 39V41C117.97 41 118.4 40.9175 118.74 40.5771C119.08 40.2368 119.163 39.8075 119.163 39.48H117.163ZM117.643 39H98.6028V41H117.643V39ZM120.255 39.84L121.055 39.24L121.055 39.24L120.255 39.84ZM120.255 39.4L121.174 39.794L121.179 39.7819L120.255 39.4ZM131.975 11.04L132.899 11.422L132.903 11.4114L131.975 11.04ZM136.895 11.04L135.966 11.4114L135.971 11.4219L136.895 11.04ZM148.615 39.4L147.691 39.7819L147.705 39.8151L147.721 39.8472L148.615 39.4ZM142.575 39.6L141.64 39.9549L141.643 39.9632L141.647 39.9714L142.575 39.6ZM140.495 34.12L141.43 33.7651L141.185 33.12H140.495V34.12ZM128.295 34.12V33.12H127.605L127.36 33.7651L128.295 34.12ZM126.215 39.6L127.143 39.9714L127.147 39.9632L127.15 39.9549L126.215 39.6ZM134.375 18L135.31 17.6467L134.375 15.1698L133.44 17.6467L134.375 18ZM130.175 29.12L129.24 28.7667L128.728 30.12H130.175V29.12ZM138.575 29.12V30.12H140.022L139.51 28.7667L138.575 29.12ZM120.655 39C120.655 39 120.668 39 120.689 39.0036C120.711 39.0073 120.745 39.015 120.786 39.0315C120.876 39.0675 120.976 39.1353 121.055 39.24L119.455 40.44C119.792 40.8893 120.288 41 120.655 41V39ZM121.055 39.24C121.158 39.3772 121.195 39.5298 121.195 39.65C121.195 39.7535 121.168 39.8075 121.174 39.7939L119.336 39.0061C119.195 39.3356 119.062 39.9157 119.455 40.44L121.055 39.24ZM121.179 39.7819L132.899 11.4219L131.051 10.6581L119.331 39.0181L121.179 39.7819ZM132.903 11.4114C132.897 11.4286 132.859 11.5061 132.76 11.572C132.662 11.637 132.582 11.64 132.575 11.64V9.64C132.275 9.64 131.948 9.70971 131.65 9.90795C131.351 10.1072 131.16 10.3848 131.047 10.6686L132.903 11.4114ZM132.575 11.64H136.295V9.64H132.575V11.64ZM136.295 11.64C136.288 11.64 136.208 11.637 136.11 11.572C136.011 11.5061 135.973 11.4286 135.967 11.4114L137.823 10.6686C137.71 10.3848 137.519 10.1072 137.22 9.90795C136.922 9.70971 136.595 9.64 136.295 9.64V11.64ZM135.971 11.4219L147.691 39.7819L149.539 39.0181L137.819 10.6581L135.971 11.4219ZM147.721 39.8472C147.677 39.7592 147.663 39.6899 147.659 39.6644C147.654 39.6362 147.655 39.6256 147.655 39.64H149.655C149.655 39.4823 149.641 39.2151 149.509 38.9528L147.721 39.8472ZM147.655 39.64C147.655 39.547 147.693 39.3149 147.912 39.136C148.092 38.9886 148.251 39 148.215 39V41C148.473 41 148.851 40.9514 149.178 40.684C149.544 40.3851 149.655 39.973 149.655 39.64H147.655ZM148.215 39H143.175V41H148.215V39ZM143.175 39C143.182 39 143.262 39.003 143.36 39.0679C143.459 39.1339 143.497 39.2114 143.503 39.2286L141.647 39.9714C141.76 40.2552 141.951 40.5328 142.25 40.7321C142.548 40.9303 142.875 41 143.175 41V39ZM143.51 39.2451L141.43 33.7651L139.56 34.4749L141.64 39.9549L143.51 39.2451ZM140.495 33.12H128.295V35.12H140.495V33.12ZM127.36 33.7651L125.28 39.2451L127.15 39.9549L129.23 34.4749L127.36 33.7651ZM125.287 39.2286C125.293 39.2114 125.331 39.1339 125.43 39.0679C125.528 39.003 125.608 39 125.615 39V41C125.915 41 126.242 40.9303 126.54 40.7321C126.839 40.5328 127.03 40.2552 127.143 39.9714L125.287 39.2286ZM125.615 39H120.655V41H125.615V39ZM133.44 17.6467L129.24 28.7667L131.11 29.4733L135.31 18.3533L133.44 17.6467ZM130.175 30.12H138.575V28.12H130.175V30.12ZM139.51 28.7667L135.31 17.6467L133.44 18.3533L137.64 29.4733L139.51 28.7667ZM170.932 12.72L170.302 13.4961L170.309 13.5021L170.932 12.72ZM172.452 22.12L173.302 22.6464L173.308 22.6374L172.452 22.12ZM169.452 24.6L169.074 23.6742L166.31 24.8026L169.196 25.5667L169.452 24.6ZM173.572 27.2L172.77 27.7973L172.776 27.8055L173.572 27.2ZM166.692 21.64L167.241 22.476L167.25 22.4701L167.259 22.464L166.692 21.64ZM166.692 16.56L166.126 17.384L166.126 17.384L166.692 16.56ZM158.092 15.68V14.68H157.092V15.68H158.092ZM158.092 22.48H157.092V23.48H158.092V22.48ZM167.932 34L168.498 34.8247L168.503 34.8214L167.932 34ZM167.932 28.32L167.367 29.1448L167.377 29.152L167.932 28.32ZM158.092 27.36V26.36H157.092V27.36H158.092ZM158.092 34.96H157.092V35.96H158.092V34.96ZM153.212 39C153.193 39 153.362 38.9959 153.529 39.1629C153.696 39.3299 153.692 39.4992 153.692 39.48H151.692C151.692 39.8075 151.775 40.2368 152.115 40.5771C152.455 40.9175 152.885 41 153.212 41V39ZM153.692 39.48V11.16H151.692V39.48H153.692ZM153.692 11.16C153.692 11.1408 153.696 11.3101 153.529 11.4771C153.362 11.6441 153.193 11.64 153.212 11.64V9.64C152.885 9.64 152.455 9.72255 152.115 10.0629C151.775 10.4032 151.692 10.8325 151.692 11.16H153.692ZM153.212 11.64H163.292V9.64H153.212V11.64ZM163.292 11.64C166.567 11.64 168.847 12.3143 170.302 13.4961L171.563 11.9439C169.604 10.3524 166.791 9.64 163.292 9.64V11.64ZM170.309 13.5021C171.764 14.6614 172.492 16.1932 172.492 18.2H174.492C174.492 15.6201 173.514 13.4986 171.555 11.9379L170.309 13.5021ZM172.492 18.2C172.492 19.5021 172.187 20.6266 171.596 21.6026L173.308 22.6374C174.104 21.3201 174.492 19.8313 174.492 18.2H172.492ZM171.602 21.5936C171.028 22.5208 170.2 23.2147 169.074 23.6742L169.83 25.5258C171.318 24.9187 172.49 23.9592 173.302 22.6464L171.602 21.5936ZM169.196 25.5667C170.836 26.0009 171.997 26.7596 172.77 27.7973L174.374 26.6027C173.28 25.1337 171.695 24.1591 169.708 23.6333L169.196 25.5667ZM172.776 27.8055C173.563 28.8394 173.972 30.0873 173.972 31.6H175.972C175.972 29.6994 175.448 28.0139 174.368 26.5945L172.776 27.8055ZM173.972 31.6C173.972 34.0082 173.157 35.768 171.589 37.018L172.836 38.582C174.947 36.8987 175.972 34.5252 175.972 31.6H173.972ZM171.589 37.018C170.007 38.2787 167.438 39 163.692 39V41C167.626 41 170.737 40.2547 172.836 38.582L171.589 37.018ZM163.692 39H153.212V41H163.692V39ZM163.092 23.48C164.74 23.48 166.161 23.1849 167.241 22.476L166.144 20.804C165.517 21.2151 164.538 21.48 163.092 21.48V23.48ZM167.259 22.464C168.408 21.6736 168.972 20.4976 168.972 19.08H166.972C166.972 19.9024 166.683 20.4331 166.126 20.816L167.259 22.464ZM168.972 19.08C168.972 17.6792 168.401 16.5212 167.259 15.736L166.126 17.384C166.69 17.7721 166.972 18.2942 166.972 19.08H168.972ZM167.259 15.736C166.175 14.9909 164.747 14.68 163.092 14.68V16.68C164.531 16.68 165.503 16.9557 166.126 17.384L167.259 15.736ZM163.092 14.68H158.092V16.68H163.092V14.68ZM157.092 15.68V22.48H159.092V15.68H157.092ZM158.092 23.48H163.092V21.48H158.092V23.48ZM163.852 35.96C165.733 35.96 167.327 35.6275 168.498 34.8247L167.367 33.1753C166.671 33.6525 165.545 33.96 163.852 33.96V35.96ZM168.503 34.8214C169.754 33.9524 170.372 32.673 170.372 31.12H168.372C168.372 32.0736 168.031 32.7142 167.362 33.1786L168.503 34.8214ZM170.372 31.12C170.372 29.5841 169.745 28.3269 168.487 27.4879L167.377 29.152C168.039 29.593 168.372 30.2025 168.372 31.12H170.372ZM168.498 27.4953C167.327 26.6925 165.733 26.36 163.852 26.36V28.36C165.545 28.36 166.671 28.6675 167.367 29.1447L168.498 27.4953ZM163.852 26.36H158.092V28.36H163.852V26.36ZM157.092 27.36V34.96H159.092V27.36H157.092ZM158.092 35.96H163.852V33.96H158.092V35.96Z" fill="white"/>
</svg>
